<svg width="499" height="106" viewBox="0 0 499 106" fill="none" xmlns="http://www.w3.org/2000/svg">
<circle cx="134.5" cy="81.5" r="13" fill="white" stroke="black" stroke-width="5"/>
<circle cx="173.5" cy="37.5" r="13" fill="white" stroke="black" stroke-width="5"/>
<circle cx="135.5" cy="15.5" r="13" fill="white" stroke="black" stroke-width="5"/>
<line x1="134.5" y1="71" x2="134.5" y2="35" stroke="black" stroke-width="5"/>
<line x1="134.5" y1="63" x2="134.5" y2="27" stroke="black" stroke-width="5"/>
<line x1="133.952" y1="54.7301" x2="159.952" y2="42.7301" stroke="black" stroke-width="5"/>
<path d="M41.31 97V78.91C41.31 76.31 40.85 74.36 39.93 73.06C39.03 71.76 37.54 71.11 35.46 71.11C34.14 71.11 32.92 71.47 31.8 72.19C30.7 72.91 29.8 73.85 29.1 75.01C28.42 76.15 28.05 77.35 27.99 78.61L25.71 78.16C25.71 76.68 26.01 75.24 26.61 73.84C27.23 72.42 28.07 71.15 29.13 70.03C30.21 68.89 31.47 67.99 32.91 67.33C34.37 66.65 35.94 66.31 37.62 66.31C39.74 66.31 41.51 66.73 42.93 67.57C44.37 68.39 45.45 69.68 46.17 71.44C46.89 73.18 47.25 75.44 47.25 78.22V97H41.31ZM2.94 97L2.94 67H8.37L8.88 73.18L8.88 97H2.94ZM22.11 97V78.91C22.11 76.31 21.65 74.36 20.73 73.06C19.81 71.76 18.32 71.11 16.26 71.11C14.94 71.11 13.73 71.47 12.63 72.19C11.53 72.91 10.64 73.85 9.96 75.01C9.28 76.15 8.91 77.35 8.85 78.61L6.57 78.16C6.59 76.68 6.9 75.24 7.5 73.84C8.1 72.42 8.94 71.15 10.02 70.03C11.1 68.89 12.35 67.99 13.77 67.33C15.21 66.65 16.76 66.31 18.42 66.31C21.62 66.31 24.02 67.21 25.62 69.01C27.24 70.81 28.05 73.56 28.05 77.26V97H22.11ZM53.5866 97V92.44H63.4266V71.56H54.9666V67H69.3666V92.44H78.6966V97H53.5866ZM63.2466 54.49H69.4866V61.3H63.2466V54.49ZM87.7266 97V67H93.0366L93.6966 73.15V97H87.7266ZM107.527 97V80.05C107.527 77.93 107.297 76.22 106.837 74.92C106.397 73.6 105.717 72.64 104.797 72.04C103.897 71.42 102.737 71.11 101.317 71.11C100.297 71.11 99.3266 71.31 98.4066 71.71C97.5066 72.11 96.6966 72.67 95.9766 73.39C95.2766 74.11 94.7066 74.94 94.2666 75.88C93.8266 76.82 93.5766 77.82 93.5166 78.88L91.8366 78.34C91.8366 76.84 92.0766 75.38 92.5566 73.96C93.0566 72.52 93.7766 71.23 94.7166 70.09C95.6766 68.93 96.8666 68.01 98.2866 67.33C99.7066 66.65 101.357 66.31 103.237 66.31C104.797 66.31 106.207 66.55 107.467 67.03C108.727 67.51 109.807 68.27 110.707 69.31C111.607 70.33 112.297 71.66 112.777 73.3C113.257 74.92 113.497 76.87 113.497 79.15V97H107.527ZM157.41 97V92.44H163.74V71.56H157.41V67H168.57L169.68 74.41V92.44H176.91V97H157.41ZM169.59 79.54L167.19 78.58C167.23 77.28 167.49 76.03 167.97 74.83C168.47 73.61 169.13 72.48 169.95 71.44C170.77 70.4 171.72 69.5 172.8 68.74C173.88 67.98 175.04 67.38 176.28 66.94C177.54 66.5 178.83 66.28 180.15 66.28C181.49 66.28 182.5 66.4 183.18 66.64C183.88 66.86 184.34 67.04 184.56 67.18L183.21 72.28C183.01 72.12 182.59 71.95 181.95 71.77C181.31 71.57 180.46 71.47 179.4 71.47C178.28 71.47 177.17 71.7 176.07 72.16C174.99 72.62 173.99 73.24 173.07 74.02C172.17 74.78 171.41 75.65 170.79 76.63C170.19 77.59 169.79 78.56 169.59 79.54ZM203.693 97L193.373 67H199.673L208.073 92.11H208.613L217.013 67H223.313L212.993 97H203.693ZM246.552 97.66C244.752 97.66 242.962 97.35 241.182 96.73C239.422 96.09 237.822 95.13 236.382 93.85C234.942 92.57 233.792 90.94 232.932 88.96C232.072 86.98 231.642 84.64 231.642 81.94C231.642 79.24 232.072 76.9 232.932 74.92C233.792 72.94 234.942 71.32 236.382 70.06C237.842 68.78 239.462 67.83 241.242 67.21C243.022 66.59 244.832 66.28 246.672 66.28C248.592 66.28 250.432 66.58 252.192 67.18C253.952 67.78 255.512 68.67 256.872 69.85C258.252 71.03 259.342 72.51 260.142 74.29C260.942 76.07 261.342 78.15 261.342 80.53C261.342 80.91 261.322 81.33 261.282 81.79C261.262 82.25 261.212 82.65 261.132 82.99H236.382V79.18H255.072C255.072 79.06 255.072 78.98 255.072 78.94C255.072 78.88 255.072 78.8 255.072 78.7C255.072 77.08 254.692 75.68 253.932 74.5C253.172 73.32 252.152 72.42 250.872 71.8C249.612 71.16 248.242 70.84 246.762 70.84C245.682 70.84 244.612 71.05 243.552 71.47C242.492 71.87 241.522 72.51 240.642 73.39C239.762 74.27 239.052 75.42 238.512 76.84C237.992 78.24 237.732 79.93 237.732 81.91C237.732 84.37 238.162 86.43 239.022 88.09C239.902 89.73 241.032 90.97 242.412 91.81C243.812 92.65 245.302 93.07 246.882 93.07C248.362 93.07 249.642 92.84 250.722 92.38C251.802 91.9 252.682 91.31 253.362 90.61C254.042 89.89 254.502 89.19 254.742 88.51L260.202 91.24C259.742 92.08 259.102 92.89 258.282 93.67C257.482 94.43 256.502 95.11 255.342 95.71C254.202 96.31 252.892 96.78 251.412 97.12C249.952 97.48 248.332 97.66 246.552 97.66ZM273.426 97V92.44H279.756V71.56H273.426V67H284.586L285.696 74.41V92.44H292.926V97H273.426ZM285.606 79.54L283.206 78.58C283.246 77.28 283.506 76.03 283.986 74.83C284.486 73.61 285.146 72.48 285.966 71.44C286.786 70.4 287.736 69.5 288.816 68.74C289.896 67.98 291.056 67.38 292.296 66.94C293.556 66.5 294.846 66.28 296.166 66.28C297.506 66.28 298.516 66.4 299.196 66.64C299.896 66.86 300.356 67.04 300.576 67.18L299.226 72.28C299.026 72.12 298.606 71.95 297.966 71.77C297.326 71.57 296.476 71.47 295.416 71.47C294.296 71.47 293.186 71.7 292.086 72.16C291.006 72.62 290.006 73.24 289.086 74.02C288.186 74.78 287.426 75.65 286.806 76.63C286.206 77.59 285.806 78.56 285.606 79.54ZM324.449 97.66C322.309 97.66 320.359 97.43 318.599 96.97C316.839 96.51 315.329 95.88 314.069 95.08C312.809 94.26 311.829 93.35 311.129 92.35L315.869 89.11C316.189 89.69 316.619 90.22 317.159 90.7C317.719 91.16 318.379 91.57 319.139 91.93C319.899 92.29 320.739 92.57 321.659 92.77C322.599 92.97 323.609 93.07 324.689 93.07C325.729 93.07 326.709 92.98 327.629 92.8C328.549 92.62 329.359 92.34 330.059 91.96C330.779 91.58 331.339 91.09 331.739 90.49C332.139 89.87 332.339 89.14 332.339 88.3C332.339 87.26 331.919 86.44 331.079 85.84C330.239 85.22 329.109 84.73 327.689 84.37C326.289 84.01 324.709 83.71 322.949 83.47C321.629 83.27 320.319 82.98 319.019 82.6C317.739 82.2 316.559 81.66 315.479 80.98C314.419 80.3 313.569 79.45 312.929 78.43C312.289 77.39 311.969 76.13 311.969 74.65C311.969 73.47 312.219 72.42 312.719 71.5C313.219 70.58 313.899 69.79 314.759 69.13C315.619 68.47 316.599 67.93 317.699 67.51C318.819 67.09 319.989 66.78 321.209 66.58C322.449 66.38 323.679 66.28 324.899 66.28C326.959 66.28 328.799 66.55 330.419 67.09C332.059 67.61 333.429 68.27 334.529 69.07C335.649 69.87 336.459 70.69 336.959 71.53L332.369 74.53C332.089 73.99 331.689 73.5 331.169 73.06C330.669 72.62 330.079 72.23 329.399 71.89C328.719 71.55 327.969 71.29 327.149 71.11C326.329 70.93 325.469 70.84 324.569 70.84C323.869 70.84 323.099 70.9 322.259 71.02C321.439 71.12 320.669 71.32 319.949 71.62C319.229 71.9 318.639 72.29 318.179 72.79C317.719 73.29 317.489 73.93 317.489 74.71C317.489 75.63 317.839 76.38 318.539 76.96C319.239 77.52 320.189 77.97 321.389 78.31C322.609 78.65 323.979 78.94 325.499 79.18C326.519 79.34 327.599 79.54 328.739 79.78C329.899 80.02 331.019 80.34 332.099 80.74C333.199 81.14 334.189 81.66 335.069 82.3C335.969 82.92 336.679 83.69 337.199 84.61C337.739 85.53 338.009 86.65 338.009 87.97C338.009 89.31 337.759 90.51 337.259 91.57C336.759 92.61 336.069 93.52 335.189 94.3C334.309 95.06 333.289 95.69 332.129 96.19C330.989 96.69 329.759 97.06 328.439 97.3C327.139 97.54 325.809 97.66 324.449 97.66ZM346.673 97V92.44H356.513V71.56H348.053V67H362.453V92.44H371.783V97H346.673ZM356.333 54.49H362.573V61.3H356.333V54.49ZM385.433 90.19H392.003V97H385.433V90.19ZM423.473 97.66C421.633 97.66 419.853 97.3 418.133 96.58C416.433 95.84 414.913 94.65 413.573 93.01C412.233 91.35 411.163 89.14 410.363 86.38C409.583 83.62 409.193 80.2 409.193 76.12C409.193 72.06 409.583 68.66 410.363 65.92C411.163 63.16 412.233 60.95 413.573 59.29C414.913 57.63 416.433 56.44 418.133 55.72C419.853 55 421.633 54.64 423.473 54.64C425.233 54.64 426.953 55 428.633 55.72C430.333 56.44 431.863 57.63 433.223 59.29C434.603 60.95 435.693 63.16 436.493 65.92C437.293 68.66 437.693 72.06 437.693 76.12C437.693 80.2 437.293 83.62 436.493 86.38C435.693 89.14 434.603 91.35 433.223 93.01C431.863 94.65 430.333 95.84 428.633 96.58C426.953 97.3 425.233 97.66 423.473 97.66ZM423.473 93.16C424.573 93.16 425.603 92.86 426.563 92.26C427.543 91.66 428.403 90.69 429.143 89.35C429.903 88.01 430.493 86.25 430.913 84.07C431.353 81.89 431.573 79.24 431.573 76.12C431.573 73.02 431.353 70.39 430.913 68.23C430.493 66.05 429.903 64.3 429.143 62.98C428.403 61.64 427.543 60.67 426.563 60.07C425.603 59.45 424.573 59.14 423.473 59.14C422.353 59.14 421.293 59.45 420.293 60.07C419.313 60.67 418.453 61.64 417.713 62.98C416.973 64.3 416.383 66.05 415.943 68.23C415.523 70.39 415.313 73.02 415.313 76.12C415.313 79.24 415.523 81.89 415.943 84.07C416.383 86.25 416.973 88.01 417.713 89.35C418.453 90.69 419.313 91.66 420.293 92.26C421.293 92.86 422.353 93.16 423.473 93.16ZM449.836 97V67H455.146L455.806 73.15V97H449.836ZM469.636 97V80.05C469.636 77.93 469.406 76.22 468.946 74.92C468.506 73.6 467.826 72.64 466.906 72.04C466.006 71.42 464.846 71.11 463.426 71.11C462.406 71.11 461.436 71.31 460.516 71.71C459.616 72.11 458.806 72.67 458.086 73.39C457.386 74.11 456.816 74.94 456.376 75.88C455.936 76.82 455.686 77.82 455.626 78.88L453.946 78.34C453.946 76.84 454.186 75.38 454.666 73.96C455.166 72.52 455.886 71.23 456.826 70.09C457.786 68.93 458.976 68.01 460.396 67.33C461.816 66.65 463.466 66.31 465.346 66.31C466.906 66.31 468.316 66.55 469.576 67.03C470.836 67.51 471.916 68.27 472.816 69.31C473.716 70.33 474.406 71.66 474.886 73.3C475.366 74.92 475.606 76.87 475.606 79.15V97H469.636Z" fill="black"/>
</svg>
